<svg xmlns="http://www.w3.org/2000/svg" viewBox="0 0 444 444" role="img" aria-label="Compás Academy"><path d="M360,218 L356,218 L353,221 L354,225 L351,228 L349,227 L347,227 L344,232 L344,236 L345,236 L347,238 L353,239 L354,238 L356,238 L361,233 L361,231 L362,230 L362,223 L361,222ZM299,218 L299,220 L298,221 L298,228 L300,232 L304,236 L306,237 L315,237 L317,236 L321,232 L322,232 L323,234 L325,235 L325,230 L322,224 L320,222 L320,221 L318,220 L314,216 L310,214 L307,214 L307,215 L310,219 L310,221 L308,223 L306,223 L302,219 L301,217ZM418,71 L416,72 L414,77 L411,80 L409,84 L402,91 L402,92 L383,110 L382,110 L378,114 L371,118 L364,124 L358,127 L355,130 L354,130 L352,132 L351,132 L349,134 L348,134 L346,136 L345,136 L343,138 L336,142 L332,146 L331,146 L328,149 L327,149 L314,163 L314,164 L312,166 L311,169 L309,171 L307,175 L307,177 L328,177 L329,178 L336,179 L337,180 L342,181 L354,187 L356,189 L359,189 L360,188 L365,187 L371,184 L372,185 L370,187 L370,188 L362,194 L358,195 L357,196 L351,191 L343,187 L341,187 L337,185 L334,185 L333,184 L330,184 L329,183 L304,183 L304,186 L308,188 L311,191 L309,192 L307,190 L298,186 L296,184 L291,182 L289,180 L282,176 L275,169 L275,168 L272,165 L272,164 L270,164 L270,166 L271,167 L271,172 L272,173 L273,178 L275,182 L280,188 L280,189 L290,197 L293,198 L298,202 L307,206 L309,208 L312,209 L315,212 L318,213 L325,220 L328,226 L328,228 L329,229 L329,237 L328,238 L328,241 L327,242 L331,246 L334,252 L334,256 L336,256 L338,254 L340,250 L340,247 L341,246 L341,230 L345,222 L351,216 L352,216 L357,212 L360,211 L370,203 L370,202 L375,196 L375,194 L377,191 L378,181 L380,179 L383,178 L386,175 L387,175 L398,164 L401,158 L403,156 L404,153 L402,153 L399,156 L396,157 L394,159 L382,165 L380,165 L375,168 L373,168 L370,170 L368,170 L364,172 L362,172 L361,171 L371,166 L373,164 L376,163 L378,161 L381,160 L383,158 L390,154 L393,151 L394,151 L397,148 L398,148 L405,141 L405,140 L411,133 L415,125 L415,123 L417,119 L417,116 L418,115 L418,112 L416,112 L416,113 L398,130 L395,131 L392,134 L391,134 L386,138 L383,139 L381,141 L378,142 L371,147 L364,150 L362,152 L358,154 L356,153 L359,150 L360,150 L379,135 L383,133 L388,128 L389,128 L393,124 L394,124 L402,116 L402,115 L408,108 L409,105 L411,103 L415,95 L416,89 L417,88 L417,84 L418,83 L418,80 L419,79 L419,72ZM360,172 L361,171 L362,172 L361,173ZM354,155 L355,154 L356,155 L355,156ZM355,154 L356,153 L357,154 L356,155ZM29,57 L30,59 L30,62 L31,63 L31,65 L33,69 L33,71 L39,83 L41,85 L43,89 L50,96 L50,97 L65,111 L69,113 L76,119 L79,120 L89,127 L98,131 L105,136 L147,157 L149,157 L151,159 L158,162 L160,164 L163,165 L165,167 L166,167 L168,169 L175,173 L178,176 L176,177 L170,174 L168,172 L164,170 L162,170 L153,165 L151,165 L141,160 L136,159 L124,153 L122,153 L119,151 L117,151 L110,147 L108,147 L84,135 L82,133 L75,130 L72,127 L69,126 L67,124 L60,120 L57,117 L56,117 L53,114 L52,114 L48,110 L47,110 L27,90 L27,89 L25,89 L25,92 L26,93 L27,100 L37,120 L42,126 L44,130 L59,145 L60,145 L63,148 L64,148 L68,152 L69,152 L80,160 L82,160 L84,162 L87,163 L89,165 L107,174 L109,174 L114,177 L116,177 L126,182 L134,184 L139,187 L144,188 L147,190 L149,190 L152,192 L154,192 L159,195 L161,195 L166,198 L168,198 L184,206 L189,210 L187,211 L179,207 L171,205 L168,203 L166,203 L162,201 L159,201 L155,199 L152,199 L148,197 L145,197 L141,195 L138,195 L137,194 L135,194 L131,192 L124,191 L118,188 L115,188 L114,187 L106,185 L103,183 L98,182 L90,178 L88,178 L66,167 L64,165 L56,161 L53,158 L52,158 L46,153 L45,153 L36,145 L34,145 L34,148 L39,158 L41,160 L41,162 L43,164 L45,168 L48,171 L48,172 L64,188 L65,188 L68,191 L72,193 L75,196 L97,207 L99,207 L102,209 L107,210 L110,212 L113,212 L114,213 L116,213 L120,215 L123,215 L127,217 L130,217 L134,219 L143,220 L147,222 L151,222 L152,223 L155,223 L156,224 L163,225 L167,227 L171,227 L172,228 L174,228 L175,229 L177,229 L178,230 L186,232 L196,237 L197,238 L196,239 L194,239 L193,238 L189,238 L185,236 L180,236 L179,235 L172,235 L171,234 L166,234 L165,233 L156,233 L155,232 L150,232 L149,231 L131,230 L130,229 L127,229 L126,228 L120,228 L119,227 L116,227 L115,226 L111,226 L110,225 L107,225 L103,223 L100,223 L99,222 L97,222 L93,220 L90,220 L90,221 L97,228 L105,232 L110,236 L112,236 L124,242 L130,243 L131,244 L137,245 L138,246 L141,246 L142,247 L146,247 L147,248 L151,248 L152,249 L156,249 L157,250 L163,250 L164,251 L167,251 L168,252 L174,252 L175,253 L179,253 L183,255 L187,255 L190,257 L193,257 L203,262 L210,269 L211,273 L212,274 L212,276 L213,277 L213,284 L212,285 L212,287 L210,291 L206,295 L206,296 L204,297 L204,298 L201,301 L200,301 L197,304 L196,304 L191,309 L190,309 L188,311 L181,315 L178,318 L158,328 L156,330 L152,332 L150,332 L132,341 L127,342 L124,344 L121,344 L113,348 L110,348 L109,349 L107,349 L106,350 L104,350 L103,351 L101,351 L100,352 L98,352 L94,354 L91,354 L87,356 L84,356 L80,358 L83,360 L86,360 L87,361 L94,361 L95,362 L116,362 L117,361 L125,361 L126,360 L129,360 L130,359 L131,360 L135,358 L138,358 L142,356 L145,356 L155,351 L157,351 L162,348 L164,348 L170,345 L177,340 L179,341 L176,344 L175,344 L169,349 L166,350 L158,356 L144,363 L142,363 L139,365 L137,365 L129,369 L126,369 L122,371 L115,372 L112,374 L108,374 L106,375 L106,376 L108,377 L111,377 L112,378 L117,378 L118,379 L140,379 L141,378 L147,378 L148,377 L151,377 L152,376 L160,374 L176,366 L178,364 L179,364 L181,362 L188,358 L192,354 L193,354 L194,355 L181,368 L180,368 L176,372 L172,374 L166,379 L156,384 L154,386 L154,387 L166,387 L167,386 L173,386 L174,385 L180,384 L183,382 L185,382 L189,380 L191,378 L194,377 L196,375 L197,375 L202,370 L203,370 L213,359 L214,360 L213,363 L211,365 L207,372 L198,382 L198,384 L202,383 L203,382 L205,382 L206,381 L208,381 L210,379 L215,377 L217,375 L221,373 L229,365 L229,364 L234,358 L235,355 L237,353 L239,349 L247,340 L245,339 L244,340 L241,340 L240,341 L235,341 L234,340 L235,339 L237,339 L242,336 L245,336 L246,335 L248,335 L252,333 L256,333 L260,331 L268,330 L272,328 L275,328 L278,326 L281,326 L282,325 L290,323 L314,311 L316,309 L319,308 L323,304 L327,302 L343,287 L343,286 L348,281 L350,277 L354,273 L355,270 L360,264 L367,250 L367,248 L369,245 L370,237 L371,236 L371,221 L370,220 L370,217 L369,216 L369,213 L368,212 L366,212 L367,222 L368,223 L367,235 L366,236 L365,241 L362,247 L359,250 L359,251 L356,254 L355,254 L350,260 L349,260 L344,264 L342,264 L338,266 L335,266 L334,267 L329,267 L328,268 L326,268 L325,267 L319,267 L318,266 L314,266 L313,265 L308,264 L307,263 L308,262 L312,261 L313,260 L312,258 L305,258 L295,253 L288,246 L283,236 L283,232 L282,231 L282,221 L283,220 L284,214 L286,212 L287,209 L291,205 L291,203 L289,201 L285,199 L281,195 L277,195 L272,200 L271,200 L268,203 L268,204 L258,214 L258,218 L265,231 L266,236 L268,239 L268,243 L269,244 L269,248 L270,249 L270,255 L271,256 L271,264 L270,265 L270,269 L269,270 L269,275 L268,276 L268,279 L266,282 L265,281 L265,279 L266,278 L266,261 L265,260 L265,254 L264,253 L262,245 L259,240 L259,238 L256,234 L254,229 L252,227 L252,226 L250,224 L250,223 L248,221 L248,220 L246,218 L242,211 L239,208 L239,207 L235,202 L234,199 L230,194 L229,191 L227,189 L226,186 L221,179 L217,170 L215,168 L213,164 L207,158 L206,158 L203,155 L195,151 L191,148 L189,148 L174,140 L169,139 L167,137 L165,137 L151,130 L149,130 L142,126 L140,126 L96,104 L94,102 L89,100 L87,98 L84,97 L82,95 L79,94 L77,92 L74,91 L72,89 L65,85 L62,82 L61,82 L54,76 L53,76 L49,72 L48,72 L43,67 L42,67 L31,56ZM213,359 L214,358 L215,359 L214,360ZM193,354 L194,353 L195,354 L194,355ZM232,341 L233,340 L235,341 L234,342ZM179,340 L180,339 L181,340 L180,341ZM180,339 L181,338 L182,339 L181,340ZM196,239 L197,238 L199,239 L198,240ZM190,212 L191,211 L192,212 L191,213ZM188,211 L189,210 L191,211 L190,212ZM178,178 L179,177 L181,178 L180,179ZM177,177 L178,176 L179,177 L178,178Z" fill="#12355B" fill-rule="evenodd"/></svg>
